<svg width="1958" height="206" viewBox="0 0 1958 206" fill="none" xmlns="http://www.w3.org/2000/svg">
<path d="M579.14 168.94C630.06 158.28 675.04 139.55 762 132.75C849.28 125.92 899.65 137.31 943.14 151.19" stroke="white" stroke-width="3" stroke-miterlimit="10"/>
<path d="M579.14 150.56C630.06 139.9 675.04 121.17 762 114.37C849.28 107.54 899.65 118.93 943.14 132.81" stroke="white" stroke-width="3" stroke-miterlimit="10"/>
<path d="M579.14 132.18C630.06 121.52 675.04 102.79 762 95.9901C849.29 89.1601 899.66 100.55 943.14 114.43" stroke="white" stroke-width="3" stroke-miterlimit="10"/>
<path d="M579.14 113.8C630.06 103.13 675.04 84.4001 762 77.6001C849.28 70.7701 899.65 82.1601 943.14 96.0401" stroke="white" stroke-width="3" stroke-miterlimit="10"/>
<path d="M580.16 95.4201C631.08 84.7501 676.06 66.0201 763.02 59.2201C850.3 52.3901 900.67 63.7801 944.16 77.6601" stroke="white" stroke-width="3" stroke-miterlimit="10"/>
</svg>
