<svg width="591" height="165" viewBox="0 0 591 165" fill="none" xmlns="http://www.w3.org/2000/svg">
<g clip-path="url(#clip0_6_1221)">
<path d="M0.359619 57.7411C33.1841 44.9119 68.8255 35.2002 105.955 32.0029C137.102 29.3052 169.307 31.1936 201.771 39.6564C254.754 53.4647 274.852 76.0455 328.564 95.4391C385.213 115.892 469.551 129.29 590.72 96.5082" stroke="white" stroke-width="2" stroke-miterlimit="10"/>
<path d="M0.359619 68.4519C32.9044 56.0024 68.1462 46.6903 104.816 43.7528C135.333 41.3149 166.849 43.2932 198.615 51.5762C251.588 65.3945 271.696 87.9753 325.408 107.369C382.546 128.001 467.853 141.45 590.72 107.569" stroke="white" stroke-width="2" stroke-miterlimit="10"/>
<path d="M0.359619 79.1828C25.2327 69.8807 51.6441 62.447 79.0244 58.3105C87.1556 57.0816 95.3767 56.1424 103.668 55.5329C104.127 55.5029 104.597 55.4629 105.056 55.433C134.524 53.4047 164.871 55.5329 195.458 63.5061C248.431 77.3244 268.529 99.9052 322.251 119.299C379.879 140.101 466.145 153.61 590.72 118.609" stroke="white" stroke-width="2" stroke-miterlimit="10"/>
<path d="M0.359619 89.9437C28.1995 79.7623 57.9173 71.9689 88.7239 68.5518H88.7439C91.8306 68.2021 94.9272 67.9124 98.0338 67.6526C128.701 65.1547 160.366 67.1131 192.292 75.436C245.274 89.2543 265.373 111.835 319.094 131.229C377.212 152.211 464.447 165.769 590.72 129.65" stroke="white" stroke-width="2" stroke-miterlimit="10"/>
<path d="M0.359619 100.735C57.7475 80.222 122.887 70.1006 189.135 87.3659C242.118 101.184 262.216 123.755 315.928 143.149C374.524 164.301 462.739 177.919 590.72 140.661" stroke="white" stroke-width="2" stroke-miterlimit="10"/>
<path d="M92.9261 68.7983C100.238 68.3331 105.87 63.322 105.507 57.6057C105.143 51.8894 98.9211 47.6325 91.6095 48.0978C84.2979 48.563 78.6653 53.5742 79.0289 59.2905C79.3925 65.0068 85.6144 69.2636 92.9261 68.7983Z" fill="white"/>
<path d="M103.358 58.7702L108.922 1.49878C108.922 1.49878 121.858 14.6476 140.548 8.52282" stroke="white" stroke-width="3" stroke-linecap="round" stroke-linejoin="round"/>
</g>
<defs>
<clipPath id="clip0_6_1221">
<rect width="591" height="395" fill="white"/>
</clipPath>
</defs>
</svg>
