<svg width="222px" height="206" viewBox="0 0 1958 206" fill="none" xmlns="http://www.w3.org/2000/svg">
<path d="M1 204.54C54.78 172.8 139.51 133.7 244 134.54C330.96 135.24 360.41 163.03 456 173.54C588.87 188.15 617.37 143.85 762 132.54C966.18 116.57 968.35 200.25 1153 182.54C1328.67 165.69 1359.7 86.8 1498 111.54C1597.74 129.39 1620.6 177.4 1711 180.54C1813.97 184.12 1900.03 125.85 1957 75.54" stroke="#B1C0AD" stroke-width="3" stroke-miterlimit="10"/>
<path d="M1 186.15C54.78 154.41 139.51 115.31 244 116.15C330.96 116.85 360.41 144.64 456 155.15C588.87 169.76 617.37 125.46 762 114.15C966.18 98.18 968.35 181.86 1153 164.15C1328.67 147.3 1359.7 68.41 1498 93.15C1597.74 111 1620.6 159.01 1711 162.15C1813.97 165.73 1900.03 107.46 1957 57.15" stroke="#B1C0AD" stroke-width="3" stroke-miterlimit="10"/>
<path d="M1 167.77C54.78 136.03 139.51 96.93 244 97.77C330.96 98.47 360.41 126.26 456 136.77C588.87 151.38 617.37 107.08 762 95.77C966.18 79.8 968.35 163.48 1153 145.77C1328.67 128.92 1359.7 50.03 1498 74.77C1597.74 92.62 1620.6 140.63 1711 143.77C1813.97 147.35 1900.03 89.08 1957 38.77" stroke="#B1C0AD" stroke-width="3" stroke-miterlimit="10"/>
<path d="M1 149.39C54.78 117.65 139.51 78.55 244 79.39C330.96 80.09 360.41 107.88 456 118.39C588.87 133 617.37 88.7 762 77.39C966.18 61.42 968.35 145.1 1153 127.39C1328.67 110.54 1359.7 31.65 1498 56.39C1597.74 74.24 1620.6 122.25 1711 125.39C1813.97 128.97 1900.03 70.7 1957 20.39" stroke="#B1C0AD" stroke-width="3" stroke-miterlimit="10"/>
<path d="M1 131C54.78 99.26 139.51 60.16 244 61C330.96 61.7 360.41 89.49 456 100C588.87 114.61 617.37 70.31 762 59C966.18 43.03 968.35 126.71 1153 109C1328.67 92.15 1359.7 13.26 1498 38C1597.74 55.85 1620.6 103.86 1711 107C1813.97 110.58 1900.03 52.31 1957 2" stroke="#B1C0AD" stroke-width="3" stroke-miterlimit="10"/>
<path d="M579.14 168.94C630.06 158.28 675.04 139.55 762 132.75C849.28 125.92 899.65 137.31 943.14 151.19" stroke="B1C0AD" stroke-width="3" stroke-miterlimit="10"/>
<path d="M579.14 150.56C630.06 139.9 675.04 121.17 762 114.37C849.28 107.54 899.65 118.93 943.14 132.81" stroke="B1C0AD" stroke-width="3" stroke-miterlimit="10"/>
<path d="M579.14 132.18C630.06 121.52 675.04 102.79 762 95.9901C849.29 89.1601 899.66 100.55 943.14 114.43" stroke="B1C0AD" stroke-width="3" stroke-miterlimit="10"/>
<path d="M579.14 113.8C630.06 103.13 675.04 84.4001 762 77.6001C849.28 70.7701 899.65 82.1601 943.14 96.0401" stroke="B1C0AD" stroke-width="3" stroke-miterlimit="10"/>
<path d="M580.16 95.4201C631.08 84.7501 676.06 66.0201 763.02 59.2201C850.3 52.3901 900.67 63.7801 944.16 77.6601" stroke="B1C0AD" stroke-width="3" stroke-miterlimit="10"/>
</svg>
