<svg xmlns="http://www.w3.org/2000/svg" version="1.1" xmlns:xlink="http://www.w3.org/1999/xlink" xmlns:svgjs="http://svgjs.dev/svgjs" width="2000" height="1247" viewBox="0 0 2000 1247"><g transform="matrix(1,0,0,1,-1.2121212121212466,193.97839205823402)"><svg viewBox="0 0 396 247" data-background-color="#ffffff" preserveAspectRatio="xMidYMid meet" height="1247" width="2000" xmlns="http://www.w3.org/2000/svg" xmlns:xlink="http://www.w3.org/1999/xlink"><g id="tight-bounds" transform="matrix(1,0,0,1,0.2400000000000091,-0.09999999999999432)"><svg viewBox="0 0 395.52 247.2" height="247.2" width="395.52"><g><svg></svg></g><g><svg viewBox="0 0 395.52 247.2" height="247.2" width="395.52"><g transform="matrix(1,0,0,1,75.54432,89.18952815943727)"><svg viewBox="0 0 244.43135999999998 68.82094368112544" height="68.82094368112544" width="244.43135999999998"><g><svg viewBox="0 0 244.43135999999998 68.82094368112544" height="68.82094368112544" width="244.43135999999998"><g><svg viewBox="0 0 244.43135999999998 68.82094368112544" height="68.82094368112544" width="244.43135999999998"><g><svg viewBox="0 0 244.43135999999998 68.82094368112544" height="68.82094368112544" width="244.43135999999998"><g id="textblocktransform"><svg viewBox="0 0 244.43135999999998 68.82094368112544" height="68.82094368112544" width="244.43135999999998" id="textblock"><g><svg viewBox="0 0 244.43135999999998 68.82094368112544" height="68.82094368112544" width="244.43135999999998"><g transform="matrix(1,0,0,1,0,0)"><svg width="244.43135999999998" viewBox="2.2 -34.42 124.94 35.18" height="68.82094368112544" data-palette-color="#b1c0ad"><path d="M6.15-4.47L6.15-30.52Q6.15-33.45 2.78-33.45L2.78-33.45Q2.25-33.45 2.25-33.64L2.25-33.64 2.25-34.23Q2.25-34.42 2.44-34.42L2.44-34.42 14.67-34.42Q14.87-34.42 14.87-34.23L14.87-34.23 14.87-33.64Q14.87-33.45 13.79-33.45 12.72-33.45 11.82-32.76 10.91-32.08 10.91-29.96L10.91-29.96 10.91-3.91Q10.91-0.98 14.31-0.98L14.31-0.98Q14.82-0.98 14.82-0.78L14.82-0.78 14.82-0.2Q14.82 0 14.62 0L14.62 0 2.39 0Q2.2 0 2.2-0.2L2.2-0.2 2.2-0.78Q2.2-0.98 3.27-0.98 4.35-0.98 5.25-1.66 6.15-2.34 6.15-4.47L6.15-4.47ZM64.59-2.34L64.59-2.34Q64.79-2.34 64.79-1.89 64.79-1.44 64.64-1.39L64.64-1.39Q61.32 0.76 58.94 0.76 56.56 0.76 54.85-1.46L54.85-1.46Q54.02-2.49 53.24-3.74 52.46-4.98 51.92-5.64L51.92-5.64Q45.06 0.66 39.74 0.66L39.74 0.66Q36.2 0.66 33.63-2.26 31.05-5.18 31.05-8.84L31.05-8.84Q31.05-13.96 36.64-17.11L36.64-17.11Q38.33-18.07 40.28-18.85L40.28-18.85Q37.49-21.56 36.84-23.88L36.84-23.88Q36.59-24.8 36.59-26.12L36.59-26.12Q36.59-28.76 38.79-30.38 40.99-32.01 43.77-32.01 46.55-32.01 48.62-30.38 50.68-28.76 50.68-26.1L50.68-26.1Q50.68-22.95 46.06-20.14L46.06-20.14Q45.53-19.82 45.48-19.78 45.43-19.73 45.43-19.57 45.43-19.41 45.71-19.15 45.99-18.9 46.35-18.58 46.7-18.26 47.39-17.63 48.09-16.99 48.77-16.43 49.46-15.87 51.56-13.21 53.66-10.55 53.78-10.55L53.78-10.55Q54.05-10.55 54.15-10.74L54.15-10.74 59.74-19.19Q60.35-20.12 60.35-20.78 60.35-21.44 59.93-21.69 59.52-21.95 59.02-22.06 58.52-22.17 58.1-22.28 57.69-22.39 57.69-22.81 57.69-23.24 57.93-23.24L57.93-23.24 66.89-23.24Q66.99-23.07 66.99-22.72 66.99-22.36 66.87-22.27L66.87-22.27Q66.72-22.17 65.25-22.02L65.25-22.02Q62.86-21.8 61.93-20.34L61.93-20.34 54.73-8.94 57.78-3.69Q59.15-1.29 61.13-1.29L61.13-1.29Q62.18-1.29 63.2-1.76 64.23-2.22 64.59-2.34ZM41.83-2.25Q44.26-2.25 46.38-3.41 48.51-4.57 50.63-6.35L50.63-6.35Q51.04-6.74 51.03-6.96 51.02-7.18 51.02-7.23L51.02-7.23Q51-7.28 51-7.35L51-7.35Q47.7-13.01 42.89-16.87L42.89-16.87Q42.62-17.09 42.26-17.41 41.89-17.72 41.55-17.72L41.55-17.72Q41.11-17.72 40.13-17.14L40.13-17.14Q38.06-15.92 36.75-13.7 35.44-11.47 35.44-9.62L35.44-9.62Q35.44-6.4 37.42-4.32 39.4-2.25 41.83-2.25ZM47.43-26L47.43-26Q47.43-30.54 43.6-30.54L43.6-30.54Q41.13-30.54 40.4-28.32L40.4-28.32Q40.18-27.64 40.18-26.33 40.18-25.02 41.18-23.39 42.18-21.75 43.89-20.7L43.89-20.7Q45.41-20.97 46.42-22.68 47.43-24.39 47.43-26ZM93.3-0.98L93.3-0.98Q93.45-0.98 93.45-0.78L93.45-0.78 93.45-0.2Q93.45 0 93.3 0L93.3 0 81.9 0Q81.7 0 81.7-0.2L81.7-0.2 81.7-0.78Q81.7-0.98 81.9-0.98L81.9-0.98Q85.9-0.98 86.24-4.42L86.24-4.42Q86.34-5.42 86.45-7.75 86.56-10.08 87.1-17.79 87.64-25.49 87.64-30.25L87.64-30.25 87.64-31.15Q87.64-32.13 86.53-32.79 85.41-33.45 84.9-33.45 84.39-33.45 84.39-33.64L84.39-33.64 84.39-34.23Q84.39-34.42 84.58-34.42L84.58-34.42 91.64-34.42Q92.1-34.35 92.4-33.89L92.4-33.89 103.85-8.37Q103.97-8.2 104.04-8.08 104.12-7.96 104.41-7.97 104.7-7.98 104.85-8.4L104.85-8.4 116.18-33.45Q116.69-34.42 117.1-34.42L117.1-34.42 124.21-34.42Q124.4-34.42 124.4-34.23L124.4-34.23 124.4-33.64Q124.4-33.45 124.28-33.45L124.28-33.45Q123.55-33.45 122.48-32.96L122.48-32.96Q120.84-32.23 120.84-30.79L120.84-30.79 122.3-3.81Q122.35-2.54 123.62-1.76 124.89-0.98 126.94-0.98L126.94-0.98Q127.14-0.98 127.14-0.78L127.14-0.78 127.14-0.2Q127.14 0 126.94 0L126.94 0 113.08 0Q112.88 0 112.88-0.2L112.88-0.2 112.88-0.78Q112.88-0.98 113.08-0.98L113.08-0.98Q117.45-0.98 117.45-3.1L117.45-3.1 116.15-26.42Q116.13-26.66 116.02-26.66 115.91-26.66 115.83-26.44L115.83-26.44 103.7-0.17Q103.6 0 103.14 0 102.68 0 102.6-0.2L102.6-0.2 90.64-26.51Q90.49-26.86 90.36-26.86 90.22-26.86 90.22-26.32L90.22-26.32Q90.22-25.2 89.64-15.72 89.05-6.25 89.05-3.91L89.05-3.91 89.05-2.91Q89.35-1.51 91.81-1.1L91.81-1.1Q92.52-0.98 93.3-0.98Z" opacity="1" transform="matrix(1,0,0,1,0,0)" fill="#b1c0ad" class="wordmark-text-0" data-fill-palette-color="primary" id="text-0"></path></svg></g></svg></g></svg></g></svg></g><g></g></svg></g></svg></g></svg></g><g><path d="M86.537 72.943A122.216 122.216 0 0 1 308.983 72.943L302.776 72.943A116.009 116.009 0 0 0 92.744 72.943L86.537 72.943M86.537 174.257A122.216 122.216 0 0 0 308.983 174.257L302.776 174.257A116.009 116.009 0 0 1 92.744 174.257L86.537 174.257" fill="#b1c0ad" stroke="transparent" data-fill-palette-color="#b1c0ad"></path></g></svg></g><defs></defs></svg><rect width="395.52" height="247.2" fill="none" stroke="none" visibility="hidden"></rect></g></svg></g></svg>